<?xml version="1.0" standalone="no"?>
<!DOCTYPE svg PUBLIC "-//W3C//DTD SVG 20010904//EN"
 "http://www.w3.org/TR/2001/REC-SVG-20010904/DTD/svg10.dtd">
<svg version="1.0" xmlns="http://www.w3.org/2000/svg"
 width="1536.000000pt" height="1024.000000pt" viewBox="0 0 1536.000000 1024.000000"
 preserveAspectRatio="xMidYMid meet">

<g transform="translate(0.000000,1024.000000) scale(0.100000,-0.100000)"
fill="#000000" stroke="none">
<path d="M0 5120 l0 -5120 7680 0 7680 0 0 5120 0 5120 -7680 0 -7680 0 0
-5120z m5117 1345 c74 -22 133 -72 174 -146 l34 -64 0 -905 0 -905 -24 -52
c-27 -62 -86 -119 -156 -153 l-50 -25 -940 0 -940 0 -63 29 c-84 39 -143 105
-166 184 -14 52 -16 150 -16 924 0 938 -1 917 55 998 38 55 97 98 157 114 81
22 1861 23 1935 1z m1605 -370 c98 -36 201 -106 258 -177 48 -61 110 -199 110
-248 0 -39 -22 -45 -175 -45 l-120 0 -23 45 c-30 57 -76 106 -127 133 -56 30
-241 32 -295 3 -138 -74 -198 -189 -207 -397 -13 -280 70 -456 242 -510 55
-17 173 -15 233 5 66 22 133 89 162 162 l23 56 133 -4 c166 -4 174 -9 156 -95
-32 -151 -142 -291 -285 -362 -126 -62 -187 -74 -346 -68 -155 5 -244 29 -340
94 -173 114 -274 276 -306 492 -61 404 84 748 371 883 120 56 183 69 329 64
111 -3 141 -8 207 -31z m1281 9 l46 -7 27 -71 c15 -39 37 -98 50 -131 12 -33
43 -119 67 -191 25 -72 49 -140 55 -150 5 -10 28 -73 50 -139 42 -122 119
-345 211 -605 28 -80 50 -156 49 -170 l-3 -25 -154 -3 c-100 -2 -158 1 -166 8
-8 6 -30 64 -50 128 -20 64 -40 127 -45 140 l-10 22 -266 -2 -266 -3 -45 -135
c-24 -74 -49 -140 -55 -148 -8 -9 -47 -12 -162 -10 l-151 3 -3 27 c-3 22 55
207 98 313 12 30 74 204 150 420 126 360 250 697 260 710 9 11 42 15 128 18
65 1 122 4 128 5 6 1 32 -1 57 -4z m1729 -17 c12 -18 10 -235 -2 -258 -10 -18
-25 -19 -335 -19 l-325 0 0 -160 0 -160 275 0 c338 0 315 11 308 -146 -2 -60
-6 -115 -8 -121 -3 -10 -73 -13 -287 -15 l-283 -3 -5 -295 c-3 -162 -7 -296
-8 -297 -1 -2 -67 -3 -146 -3 -114 0 -146 3 -156 15 -14 17 -17 1452 -3 1466
20 20 962 16 975 -4z m1186 8 c17 -6 17 -256 0 -273 -9 -9 -98 -12 -340 -12
l-328 0 0 -150 0 -150 290 0 290 0 5 -22 c3 -13 4 -75 3 -138 l-3 -115 -292
-3 -293 -2 0 -165 0 -165 335 0 c320 0 335 -1 345 -19 14 -28 13 -244 -2 -259
-19 -19 -971 -17 -987 2 -8 9 -10 212 -9 742 l3 729 75 5 c87 6 889 1 908 -5z
m1463 -6 c13 -20 12 -1435 -1 -1460 -10 -17 -22 -19 -148 -19 -96 0 -143 4
-153 13 -9 6 -46 62 -84 122 -38 61 -92 146 -120 190 -28 44 -119 186 -202
315 -83 129 -156 245 -162 258 -6 12 -16 22 -21 22 -6 0 -10 -166 -10 -444 0
-244 -3 -451 -6 -460 -9 -24 -275 -24 -298 0 -14 14 -16 94 -16 733 0 600 2
720 14 730 9 8 61 11 162 9 l149 -3 50 -75 c84 -128 267 -415 407 -639 l133
-214 5 464 5 464 90 6 c128 9 195 5 206 -12z"/>
<path d="M3333 6151 c-22 -21 -23 -30 -23 -161 0 -181 -7 -174 175 -185 420
-25 755 -220 946 -550 92 -158 142 -322 160 -523 19 -217 4 -202 197 -202 81
0 152 4 158 8 28 19 36 55 30 141 -32 427 -167 756 -416 1015 -280 291 -656
456 -1080 473 -118 5 -126 4 -147 -16z"/>
<path d="M3328 5499 c-16 -9 -18 -28 -18 -159 0 -183 -2 -180 135 -180 293 0
461 -170 494 -500 8 -80 14 -108 27 -117 13 -9 62 -13 165 -13 177 0 174 -2
171 108 -4 119 -46 292 -97 399 -45 92 -135 216 -193 264 -118 100 -263 169
-409 194 -98 17 -249 19 -275 4z"/>
<path d="M3445 4891 c-74 -24 -117 -69 -135 -143 -34 -134 93 -255 229 -218
146 39 190 219 78 317 -51 44 -119 62 -172 44z"/>
<path d="M7857 5719 c-2 -8 -43 -131 -90 -275 -48 -143 -87 -263 -87 -267 0
-4 83 -7 185 -7 152 0 185 3 185 14 0 21 -170 530 -180 540 -6 6 -11 4 -13 -5z"/>
</g>
</svg>
